<svg width="33" height="31" viewBox="0 0 33 31" fill="none" xmlns="http://www.w3.org/2000/svg">
<g opacity="0.8">
<path d="M21.1104 15.3C21.1104 16.5497 20.5869 17.7482 19.6551 18.6319C18.7233 19.5155 17.4595 20.012 16.1417 20.012C14.8239 20.012 13.5601 19.5155 12.6283 18.6319C11.6965 17.7482 11.173 16.5497 11.173 15.3C11.174 14.935 11.2211 14.5714 11.3133 14.217H10.4117V20.715H21.8316V14.217H20.9301C21.0309 14.5708 21.0913 14.9339 21.1104 15.3Z" fill="white"/>
<path d="M16.1818 17.827C16.7079 17.8232 17.2211 17.6718 17.6567 17.3919C18.0922 17.112 18.4307 16.716 18.6293 16.2539C18.8279 15.7919 18.8778 15.2844 18.7727 14.7954C18.6677 14.3065 18.4123 13.858 18.0389 13.5065C17.6654 13.155 17.1906 12.9162 16.6743 12.8202C16.1579 12.7243 15.6232 12.7754 15.1375 12.9672C14.6517 13.159 14.2367 13.4829 13.9448 13.898C13.6529 14.3132 13.4971 14.801 13.4971 15.3C13.4984 15.6331 13.5689 15.9627 13.7045 16.2699C13.8402 16.5772 14.0383 16.8561 14.2876 17.0908C14.5369 17.3254 14.8325 17.5112 15.1575 17.6375C15.4825 17.7639 15.8305 17.8282 16.1818 17.827Z" fill="white"/>
<path d="M21.8717 9.88498H18.8264V12.773H21.8717V9.88498Z" fill="white"/>
<path d="M16.1818 0.0999756C13.0118 0.0999756 9.91291 0.99144 7.27712 2.66164C4.64134 4.33183 2.58699 6.70575 1.37387 9.48319C0.160753 12.2606 -0.156654 15.3168 0.461789 18.2653C1.08023 21.2139 2.60675 23.9222 4.8483 26.048C7.08985 28.1738 9.94576 29.6214 13.0549 30.2079C16.164 30.7944 19.3867 30.4934 22.3154 29.3429C25.2442 28.1925 27.7474 26.2443 29.5086 23.7446C31.2697 21.245 32.2098 18.3063 32.2098 15.3C32.2098 11.2687 30.5211 7.40251 27.5153 4.55195C24.5094 1.7014 20.4327 0.0999756 16.1818 0.0999756ZM24.1958 20.715C24.1985 21.0042 24.1401 21.2911 24.024 21.5586C23.9079 21.8261 23.7365 22.0689 23.5199 22.2725C23.3033 22.4762 23.0458 22.6366 22.7627 22.7444C22.4797 22.8522 22.1767 22.9051 21.8717 22.9H10.4518C10.1505 22.8987 9.85249 22.8412 9.57467 22.7307C9.29685 22.6203 9.0447 22.459 8.83261 22.2561C8.62052 22.0532 8.45265 21.8127 8.33858 21.5482C8.22452 21.2838 8.16648 21.0007 8.1678 20.715V9.88498C8.16648 9.59928 8.22452 9.31614 8.33858 9.05172C8.45265 8.7873 8.62052 8.54677 8.83261 8.34388C9.0447 8.14098 9.29685 7.97969 9.57467 7.86921C9.85249 7.75872 10.1505 7.70122 10.4518 7.69998H21.8617C22.1672 7.69491 22.4706 7.74776 22.7542 7.85542C23.0378 7.96307 23.2959 8.12337 23.5134 8.3269C23.7308 8.53043 23.9031 8.77309 24.0203 9.04065C24.1375 9.3082 24.1972 9.59526 24.1958 9.88498V20.715Z" fill="white"/>
</g>
</svg>
